 <svg version="1.1" id="Layer_1" xmlns="http://www.w3.org/2000/svg" xmlns:xlink="http://www.w3.org/1999/xlink" width="48" height="48"
	 viewBox="0 0 48 48" >
<style type="text/css">
	.st0{fill:#CCCCCC;}
	.st1{fill:#149ED9;}
</style>
<g>
	<path class="st0" d="M0.4,4.4L0.4,4.4c0,1.8,1,3.2,2.2,3.2h17.3c1.2,0,2.2-1.4,2.2-3.2l0,0c0-1.8-1-3.2-2.2-3.2H2.6
		C1.4,1.1,0.4,2.6,0.4,4.4z"/>
	<path class="st1" d="M0.4,15.1L0.4,15.1c0,1.8,1.2,3.2,2.7,3.2H25c1.5,0,2.7-1.4,2.7-3.2l0,0c0-1.8-1.2-3.2-2.7-3.2H3.1
		C1.6,11.9,0.4,13.3,0.4,15.1z"/>
	<path class="st0" d="M0.4,25.9L0.4,25.9c0,1.8,1.5,3.2,3.2,3.2h25.8c1.8,0,3.2-1.4,3.2-3.2l0,0c0-1.8-1.4-3.2-3.2-3.2H3.6
		C1.9,22.6,0.4,24.1,0.4,25.9z"/>
</g>
</svg>
